<svg xmlns="http://www.w3.org/2000/svg" viewBox="0 0 314.52 55.13"><defs><style>.cls-1{fill:#880b58;}.cls-2{fill:#e42313;}.cls-3{fill:#a84191;}.cls-4{fill:#e9428c;}.cls-5,.cls-6{fill:#706f6f;}.cls-6{font-size:12.1px;font-family:CenturyGothic, Century Gothic;}.cls-11,.cls-7,.cls-9{font-size:10.08px;}.cls-8{letter-spacing:0em;}.cls-9{letter-spacing:0em;}.cls-10{letter-spacing:0em;}.cls-11{letter-spacing:0em;}</style></defs><g id="Calque_2" data-name="Calque 2"><g id="Calque_2-2" data-name="Calque 2"><g id="Triangle"><polygon class="cls-1" points="0 48.06 37.61 25.61 0 3.15 0 48.06"/><polygon class="cls-2" points="0 48.06 37.61 25.61 23.17 16.98 0 48.06"/><polygon class="cls-3" points="16.99 37.92 37.61 25.61 0 3.15 16.99 37.92"/><polygon class="cls-4" points="16.99 37.92 13.26 30.28 23.17 16.98 37.61 25.61 16.99 37.92"/></g><g id="ND"><path class="cls-5" d="M48.35,9h6v2.32A10,10,0,0,1,61.66,8a11,11,0,0,1,8.09,3.72c2.47,3,2.47,7.46,2.47,9.54V35.82H65.78V22.56c0-2.23,0-8.62-5.42-8.62A5.51,5.51,0,0,0,56,16.31C54.79,18,54.79,20.77,54.79,23V35.82H48.35Z"/><path class="cls-5" d="M80.64,25.27a7.69,7.69,0,0,0,7.41,5.52,6.61,6.61,0,0,0,6.2-3.44H101a14,14,0,0,1-13,9.35A14.13,14.13,0,0,1,73.86,22.46c0-7.6,5.86-14.57,14.14-14.57,8.52,0,13.89,7.36,13.89,14.14a15.09,15.09,0,0,1-.38,3.24Zm14.67-5.18a7.2,7.2,0,0,0-7.26-6.29,7.77,7.77,0,0,0-7.6,6.29Z"/><polygon class="cls-5" points="108.33 21.98 100.01 8.96 107.22 8.96 112.16 17.04 117.05 8.96 124.26 8.96 115.93 21.98 125.57 35.83 117.92 35.83 112.16 26.63 106.45 35.83 98.8 35.83 108.33 21.98"/><polygon class="cls-5" points="140.18 8.96 134.77 8.96 134.77 0 128.33 0 128.33 8.96 126.72 8.96 126.72 14.67 128.33 14.67 128.33 35.82 134.77 35.82 134.77 14.67 140.18 14.67 140.18 8.96"/><path class="cls-5" d="M170.3,35.82h-1.36V29.43h-.09a12.85,12.85,0,0,1-11.91,7A13.19,13.19,0,0,1,143.43,23,13.2,13.2,0,0,1,156.94,9.54c6.2,0,10.65,3.82,11.91,7.16h.09V0h1.36ZM169.09,23a12.15,12.15,0,1,0-24.3,0c.05,5.8,4,12.2,12.29,12.2a11.9,11.9,0,0,0,12-12.2"/><path class="cls-5" d="M174.71,23.14A12,12,0,0,0,186.86,35.2a11.74,11.74,0,0,0,10.94-6.78h1.5a13.6,13.6,0,0,1-26-5.42v0a13.52,13.52,0,0,1,27-.63l0,.73Zm24.2-1.26a12,12,0,0,0-12-11.08,11.85,11.85,0,0,0-12.11,11.08Z"/><path class="cls-5" d="M228.1,27.74c-1.79,5.23-6.63,8.62-12.73,8.71A13.12,13.12,0,0,1,201.86,23v0a13.55,13.55,0,0,1,26.29-4.55h-1.5a11.7,11.7,0,0,0-11.23-7.69,12,12,0,0,0-8.67,3.43A12.23,12.23,0,0,0,203.22,23a12,12,0,0,0,12.15,12.2c5.81-.05,10-3.64,11.23-7.46Z"/><path class="cls-5" d="M232.56,4.41H231.2V0h1.36Zm0,31.41H231.2V10.17h1.36Z"/><path class="cls-5" d="M237.59,28.71c0,4.11,2.81,6.48,6.54,6.48A6,6,0,0,0,250.28,29c-.1-3.53-2-5.23-6.2-6.15-3.87-1.11-6.78-2.23-6.92-6.63s3.14-6.63,7-6.63,6.78,2.27,6.78,6.68h-1.36c0-3.88-2.66-5.47-5.42-5.42-3.44,0-5.76,2.32-5.62,5.37s2,4.26,5.62,5.28c3.39.92,7.21,1.84,7.5,7.31a7.32,7.32,0,0,1-7.5,7.69c-4.26,0-8.18-3.05-7.89-7.74Z"/><path class="cls-5" d="M257.25,4.41h-1.36V0h1.36Zm0,31.41h-1.36V10.17h1.36Z"/><path class="cls-5" d="M274.09,9.54A13.2,13.2,0,0,1,287.6,23a13.51,13.51,0,0,1-27,0,13.2,13.2,0,0,1,13.5-13.45m0,25.65A11.9,11.9,0,0,0,286.25,23a12.16,12.16,0,1,0-24.31,0,11.9,11.9,0,0,0,12.15,12.2"/><path class="cls-5" d="M292.35,15.1h.09c1.6-3.72,6.25-5.66,10.31-5.56a12.22,12.22,0,0,1,8,2.56c2.52,2.13,3.73,5.57,3.73,10.17V35.82h-1.36V22.27c0-4.45-1.21-7.31-3.14-9a10.62,10.62,0,0,0-7.27-2.42c-6.43.09-10.4,3.82-10.4,10.26V35.82H291V10.17h1.36Z"/><text class="cls-6" transform="translate(47.49 51.42)">D<tspan class="cls-7" x="9" y="0">ATA</tspan><tspan class="cls-8" x="28.22" y="0">, O</tspan><tspan class="cls-9" x="45.44" y="0">RGANISATION</tspan><tspan class="cls-10" x="112.83" y="0">, P</tspan><tspan class="cls-11" x="126.69" y="0">ILOTAGE</tspan><tspan x="168.35" y="0" xml:space="preserve"> RH, B</tspan><tspan class="cls-7" x="200.96" y="0">USINESS</tspan><tspan x="237.77" y="0" xml:space="preserve"> A</tspan><tspan class="cls-7" x="250.08" y="0">PPS</tspan></text></g></g></g></svg>